$MeshFormat
2.2 0 8
$EndMeshFormat
$Nodes
14
1 0 0 0
2 1 0 0
3 1 1 0
4 0 1 0
5 0 0 1
6 1 0 1
7 1 1 1
8 0 1 1
9 0.5 0.5 0
10 0.5 0.5 1
11 0.5 0 0.5
12 1 0.5 0.5
13 0.5 1 0.5
14 0 0.5 0.5
$EndNodes
$Elements
68
1 15 2 0 1 1
2 15 2 0 2 2
3 15 2 0 3 3
4 15 2 0 4 4
5 15 2 0 5 5
6 15 2 0 6 6
7 15 2 0 7 7
8 15 2 0 8 8
9 1 2 0 1 1 2
10 1 2 0 2 2 3
11 1 2 0 3 3 4
12 1 2 0 4 4 1
13 1 2 0 5 5 6
14 1 2 0 6 6 7
15 1 2 0 7 7 8
16 1 2 0 8 8 5
17 1 2 0 9 1 5
18 1 2 0 10 2 6
19 1 2 0 11 3 7
20 1 2 0 12 4 8
21 2 2 0 1 1 2 9
22 2 2 0 1 4 1 9
23 2 2 0 1 2 3 9
24 2 2 0 1 3 4 9
25 2 2 0 2 5 6 10
26 2 2 0 2 8 5 10
27 2 2 0 2 6 7 10
28 2 2 0 2 7 8 10
29 2 2 0 3 1 2 11
30 2 2 0 3 5 1 11
31 2 2 0 3 2 6 11
32 2 2 0 3 6 5 11
33 2 2 0 4 2 3 12
34 2 2 0 4 6 2 12
35 2 2 0 4 3 7 12
36 2 2 0 4 7 6 12
37 2 2 0 5 3 4 13
38 2 2 0 5 7 3 13
39 2 2 0 5 4 8 13
40 2 2 0 5 8 7 13
41 2 2 0 6 4 1 14
42 2 2 0 6 1 5 14
43 2 2 0 6 8 4 14
44 2 2 0 6 5 8 14
45 4 2 0 1 9 13 14 12
46 4 2 0 1 11 14 10 12
47 4 2 0 1 11 9 14 12
48 4 2 0 1 14 13 10 12
49 4 2 0 1 14 5 1 11
50 4 2 0 1 10 5 11 6
51 4 2 0 1 8 10 5 14
52 4 2 0 1 8 4 13 14
53 4 2 0 1 4 1 9 14
54 4 2 0 1 13 8 10 7
55 4 2 0 1 4 13 9 3
56 4 2 0 1 7 6 10 12
57 4 2 0 1 12 6 11 2
58 4 2 0 1 1 9 11 2
59 4 2 0 1 3 7 13 12
60 4 2 0 1 12 9 3 2
61 4 2 0 1 14 1 9 11
62 4 2 0 1 10 5 14 11
63 4 2 0 1 10 8 13 14
64 4 2 0 1 9 13 4 14
65 4 2 0 1 6 11 10 12
66 4 2 0 1 13 9 3 12
67 4 2 0 1 10 13 7 12
68 4 2 0 1 12 11 9 2
$EndElements
